PathFileType	4	(X/Y/Z)	../Python\walking\Walking03\task.trc
DataRate	CameraRate	NumFrames	NumMarkers	Units	OrigDataRate	OrigDataStartFrame	OrigNumFrames
200.000000	200.000000	6	30	mm	200.000000	167	671
Frame#	Time	CLAV			STRN			RASI			LASI			RTH1			RTH2			RTH3			RTB1			RTB2			RTB3			RD5M			RTOE			LTH1			LTH2			LTB1			LTB2			LTB3			LTOE			LD5M			LTH3			RHEE			RPSI			T10			PE03			PE02			PE01			C7			LPSI			LHEE			RBAK			
		X1	Y1	Z1	X2	Y2	Z2	X3	Y3	Z3	X4	Y4	Z4	X5	Y5	Z5	X6	Y6	Z6	X7	Y7	Z7	X8	Y8	Z8	X9	Y9	Z9	X10	Y10	Z10	X11	Y11	Z11	X12	Y12	Z12	X13	Y13	Z13	X14	Y14	Z14	X15	Y15	Z15	X16	Y16	Z16	X17	Y17	Z17	X18	Y18	Z18	X19	Y19	Z19	X20	Y20	Z20	X21	Y21	Z21	X22	Y22	Z22	X23	Y23	Z23	X24	Y24	Z24	X25	Y25	Z25	X26	Y26	Z26	X27	Y27	Z27	X28	Y28	Z28	X29	Y29	Z29	X30	Y30	Z30	

168	0.835	-281.5676574707032	1391.0029296875	245.6236419677736	-236.318572998047	1197.150390625	257.5359497070314	-286.3833007812501	993.8654174804692	406.1739501953127	-225.3959503173829	978.6672973632817	130.4291992187501	-391.0239868164065	744.9277343750002	424.2906494140627	-451.1552734375002	738.2758789062502	410.2799377441409	-442.4503173828127	690.1392211914065	397.6241149902346	-545.4744262695315	363.9339294433595	332.3664550781251	-603.0360107421877	341.8998413085939	326.525360107422	-583.3665771484377	296.0850830078126	316.3642578125001	-633.422302246094	16.62054824829102	312.3034973144532	-565.5537719726565	28.26152420043947	277.4383544921876	-229.1675567626954	677.7056884765627	83.11649322509768	-235.9853057861329	632.9544677734377	104.371208190918	-77.89730072021487	348.8308410644532	118.3434219360352	-83.52520751953128	302.0541992187501	133.3430633544922	-22.62825965881348	292.1859741210939	123.4325485229493	223.7459564208986	125.1657714843751	178.1751861572266	201.0117797851564	84.01213073730472	147.4367675781251	-177.0510559082032	619.335144042969	92.89067077636722	-766.7606201171877	81.26189422607425	213.907928466797	-429.407653808594	1039.87060546875	278.4452514648439	-462.6683654785159	1231.599975585938	232.4905090332032	-422.3529968261721	1023.611633300782	204.8697814941407	-430.2051391601565	1026.181396484375	255.1235504150392	-413.2718505859377	1084.810180664063	228.6952209472657	-392.8454284667971	1487.322631835938	228.860809326172	-411.5179138183596	1034.791870117188	180.2644500732422	41.012752532959	38.27391815185548	208.0309143066407	-419.8129577636721	1400.886108398438	405.5981750488284	
169	0.84	-273.7940063476564	1390.352783203125	245.5036926269532	-228.2976837158204	1196.501220703125	257.4703369140626	-278.2866516113282	992.974487304688	405.9829711914065	-216.9090881347657	978.1101684570317	130.0867156982422	-384.2317810058596	744.6936645507815	424.4671630859377	-444.3766174316409	738.4138793945315	410.2916259765627	-435.9526672363284	690.1677856445315	397.8137512207034	-541.3706054687502	364.5549316406251	333.010711669922	-599.189147949219	343.121551513672	327.1900024414064	-579.9973754882815	297.0825805664064	317.0532226562501	-633.3039550781252	16.60286140441895	312.5399780273439	-565.482116699219	28.25868988037111	277.546356201172	-219.7304229736329	677.7535400390627	83.00479888916018	-226.4336853027345	632.9808349609377	104.2020874023438	-70.5913009643555	347.9730224609376	119.1872634887696	-76.51406097412112	301.3314819335939	134.4640808105469	-15.74224567413331	290.9418945312501	124.2096481323243	229.5564270019532	122.1538314819337	178.7120361328126	206.3608398437501	81.02744293212893	148.3748626708985	-167.3776397705079	619.6174316406252	92.88969421386722	-765.8077392578127	84.57446289062503	215.1021575927736	-421.167663574219	1039.046020507813	277.9903259277345	-454.6487426757815	1230.692626953125	232.0334320068361	-414.0673522949221	1022.88037109375	204.4125823974611	-421.9184265136721	1025.381958007813	254.6683654785157	-405.0453796386721	1084.061645507813	228.3122711181642	-385.2207641601565	1486.532470703125	228.572235107422	-403.226501464844	1034.072387695313	179.8234405517579	46.21214675903322	37.1570281982422	209.4326629638673	-412.3826293945315	1399.910888671875	405.249938964844	
170	0.845	-265.9782104492189	1389.783447265625	245.3528900146486	-220.1972961425782	1195.951904296875	257.3650207519532	-270.035614013672	992.1308593750005	405.7501220703127	-208.3541717529298	977.6669311523442	129.7151641845704	-377.2305297851564	744.4932861328127	424.6348266601565	-437.3880615234377	738.577819824219	410.3158874511721	-429.2405700683596	690.2258911132815	398.0115966796877	-537.0900878906252	365.2395629882814	333.7023010253907	-595.1671142578127	344.4224243164064	327.9059143066407	-576.4626464843752	298.1566162109376	317.8023986816407	-633.1710205078127	16.61450386047364	312.775848388672	-565.3997802734377	28.25496101379396	277.6611328125001	-210.1440429687501	677.860534667969	82.86624908447268	-216.7297668457032	633.0745239257815	104.0226058959962	-63.4199028015137	347.1140747070314	120.044532775879	-69.72270965576175	300.6089477539064	135.5622711181641	-9.074153900146488	289.6242065429689	125.0216674804688	234.8364257812501	118.6250839233399	179.3475646972657	211.0991058349611	77.62300109863284	149.3545074462891	-157.5451965332032	619.9622192382815	92.88122558593753	-764.706726074219	88.06789398193362	216.3397064208986	-412.811462402344	1038.285888671875	277.5635986328126	-446.5534973144534	1229.834594726563	231.5875854492189	-405.6917724609377	1022.224243164063	203.977752685547	-413.5240478515627	1024.647705078125	254.2390441894532	-396.7286682128909	1083.384521484375	227.9589385986329	-377.5649414062501	1485.804931640625	228.2684631347657	-394.8516845703127	1033.432861328125	179.4017333984376	50.73116683959964	35.92213058471681	210.7273254394532	-404.8963623046877	1399.002075195313	404.8848266601565	
171	0.85	-258.1211853027345	1389.296630859375	245.1715850830079	-212.0184478759767	1195.504516601563	257.2215576171876	-261.6331481933595	991.3325195312505	405.4768676757815	-199.732391357422	977.340454101563	129.320541381836	-370.0165100097657	744.318542480469	424.7908630371096	-430.1852722167971	738.7581787109377	410.346130371094	-422.3083496093752	690.3049316406252	398.2122192382815	-532.6201171875002	365.9815368652345	334.436981201172	-590.956726074219	345.7976684570314	328.6640014648439	-572.7503051757815	299.3021850585939	318.6079711914064	-633.0249023437502	16.66257286071778	313.0049133300782	-565.3096313476565	28.24839591979982	277.7803955078126	-200.4594268798829	678.0040283203127	82.70971679687503	-206.9386749267579	633.213562011719	103.8423690795899	-56.37504959106448	346.2562561035157	120.9066848754883	-63.13172912597659	299.885711669922	136.6238403320313	-2.600211381912232	288.2513732910157	125.8670196533204	239.6415557861329	114.6383285522462	180.1315460205079	215.3001098632814	73.85720825195315	150.4086914062501	-147.6236114501954	620.3303222656252	92.88073730468753	-763.436218261719	91.73977661132815	217.6045532226564	-404.341491699219	1037.590698242188	277.1668395996095	-438.3841247558596	1229.028198242188	231.1544342041017	-397.2284240722659	1021.645690917969	203.5663604736329	-405.024597167969	1023.979797363282	253.8368072509767	-388.3231506347659	1082.7802734375	227.6380767822267	-369.8785095214845	1485.141845703125	227.9497528076173	-386.3951416015627	1032.876342773438	179.0002136230469	54.63880157470706	34.61112594604494	211.9074554443361	-397.3545837402346	1398.162963867188	404.5034179687502	
172	0.855	-250.224090576172	1388.893798828125	244.9604339599611	-203.7628936767579	1195.16015625	257.0420837402345	-253.0836639404298	990.5772094726567	405.1647949218752	-191.0465240478516	977.1329956054692	128.9089660644532	-362.5874938964845	744.1606445312502	424.9326171875002	-422.7654113769534	738.944763183594	410.3756103515627	-415.1519775390627	690.3955078125002	398.4103088378909	-527.947204589844	366.7731018066407	335.2112121582032	-586.5443115234377	347.240936279297	329.4555664062501	-568.8475341796877	300.5127868652345	319.4666748046876	-632.8665161132815	16.75436973571778	313.2220458984376	-565.215270996094	28.23669433593751	277.9013061523439	-190.7293853759766	678.1650390625002	82.5463790893555	-197.1282501220704	633.3782958984377	103.6704788208008	-49.4472579956055	345.4046325683595	121.7654571533204	-56.71940231323245	299.1643371582032	137.6367492675782	3.704492807388307	286.8447875976564	126.7432556152344	244.029754638672	110.2550964355469	181.1091918945313	219.0390930175782	69.79273223876956	151.5649414062501	-137.6854095458985	620.6860961914065	92.90544128417972	-761.9739379882815	95.58621215820315	218.8826599121095	-395.7616882324221	1036.960693359375	276.8016662597657	-430.1426391601565	1228.275512695313	230.7354278564454	-388.6810302734377	1021.146728515625	203.1794738769532	-396.4241943359377	1023.37890625	253.4627990722657	-379.8316040039064	1082.250122070313	227.3525390625001	-362.1621093750001	1484.545043945313	227.6165008544923	-377.8599853515626	1032.405395507813	178.6197052001954	58.0068168640137	33.27036666870119	212.9669952392579	-389.7580871582034	1397.396606445313	404.1064453125002	
173	0.86	-242.2883758544923	1388.575561523438	244.7203979492189	-195.4331665039064	1194.919677734375	256.8292846679689	-244.393280029297	989.8620605468755	404.8156433105471	-182.3011474609376	977.0460815429692	128.486557006836	-354.9425354003907	744.010437011719	425.0575256347659	-415.1270751953127	739.1267700195315	410.3974304199221	-407.7688598632815	690.4874267578127	398.6005554199221	-523.0574340820315	367.6048889160157	336.0220947265626	-581.9150390625002	348.7442626953126	330.2728881835939	-564.740905761719	301.7803955078126	320.375946044922	-632.6956787109377	16.89743614196778	313.4233703613282	-565.121276855469	28.21735191345216	278.0205078125001	-181.0063934326172	678.3296508789065	82.38871765136722	-187.3660736083985	633.5533447265627	103.5150680541993	-42.62527465820314	344.5674438476564	122.613021850586	-50.46188735961917	298.4510192871095	138.5907287597657	9.865599632263187	285.4283447265626	127.646957397461	248.0597534179689	105.5381393432618	182.3183135986329	222.3905639648439	65.49542999267581	152.8426818847657	-127.8027343750001	620.999450683594	92.97267913818362	-760.296813964844	99.60186767578131	220.1628265380861	-387.0775146484377	1036.395263671875	276.4698181152345	-421.8317565917971	1227.578491210938	230.3318939208986	-380.054901123047	1020.728881835938	202.8181304931642	-387.7283020019534	1022.84521484375	253.118133544922	-371.2581176757814	1081.794311523438	227.1052246093751	-354.4165649414064	1484.015991210938	227.2691497802736	-369.2510070800782	1032.022338867188	178.2611083984376	60.90776824951175	31.94870948791505	213.9010314941407	-382.1080932617189	1396.705444335938	403.6947326660159	
